<svg width="541" height="1173" viewBox="0 0 541 1173" fill="none" xmlns="http://www.w3.org/2000/svg">
<rect x="541" width="37.4262" height="540.44" rx="18.7131" transform="rotate(90 541 0)" fill="#D9D9D9"/>
<rect x="541" y="126.067" width="37.4262" height="540.44" rx="18.7131" transform="rotate(90 541 126.067)" fill="#D9D9D9"/>
<rect x="541" y="252.134" width="37.4262" height="540.44" rx="18.7131" transform="rotate(90 541 252.134)" fill="#D9D9D9"/>
<rect x="541" y="378.202" width="37.4262" height="540.44" rx="18.7131" transform="rotate(90 541 378.202)" fill="#D9D9D9"/>
<rect x="541" y="504.269" width="37.4262" height="540.44" rx="18.7131" transform="rotate(90 541 504.269)" fill="#D9D9D9"/>
<rect x="541" y="630.336" width="37.4262" height="540.44" rx="18.7131" transform="rotate(90 541 630.336)" fill="#D9D9D9"/>
<rect x="541" y="756.403" width="37.4262" height="540.44" rx="18.7131" transform="rotate(90 541 756.403)" fill="#D9D9D9"/>
<rect x="541" y="882.471" width="37.4262" height="540.44" rx="18.7131" transform="rotate(90 541 882.471)" fill="#D9D9D9"/>
<rect x="541" y="1008.54" width="37.4262" height="540.44" rx="18.7131" transform="rotate(90 541 1008.54)" fill="#D9D9D9"/>
<rect x="541" y="1134.6" width="37.4262" height="540.44" rx="18.7131" transform="rotate(90 541 1134.6)" fill="#D9D9D9"/>
<rect x="492" width="37.4262" height="492" rx="18.7131" transform="rotate(90 492 0)" fill="#52C1FF"/>
<rect x="413" y="378.201" width="37.4262" height="413" rx="18.7131" transform="rotate(90 413 378.201)" fill="#52C1FF"/>
<rect x="292" y="882.439" width="37.4262" height="292" rx="18.7131" transform="rotate(90 292 882.439)" fill="#52C1FF"/>
<rect x="267" y="1134.57" width="37.4262" height="266" rx="18.7131" transform="rotate(90 267 1134.57)" fill="#52C1FF"/>
<rect x="293" y="1008.51" width="37.4262" height="292" rx="18.7131" transform="rotate(90 293 1008.51)" fill="#52C1FF"/>
<rect x="332" y="756.403" width="37.4262" height="331" rx="18.7131" transform="rotate(90 332 756.403)" fill="#52C1FF"/>
<rect x="415" y="630.366" width="37.4262" height="414" rx="18.7131" transform="rotate(90 415 630.366)" fill="#52C1FF"/>
<rect x="415" y="504.284" width="37.4262" height="415" rx="18.7131" transform="rotate(90 415 504.284)" fill="#52C1FF"/>
<rect x="470" y="126.067" width="37.4262" height="470" rx="18.7131" transform="rotate(90 470 126.067)" fill="#52C1FF"/>
<rect x="470" y="252.165" width="37.4262" height="470" rx="18.7131" transform="rotate(90 470 252.165)" fill="#52C1FF"/>
</svg>
