<svg width="541" height="1681" viewBox="0 0 541 1681" fill="none" xmlns="http://www.w3.org/2000/svg">
<rect x="540.44" width="37.4262" height="540.44" rx="18.7131" transform="rotate(90 540.44 0)" fill="#D9D9D9"/>
<rect x="540.44" y="126.426" width="37.4262" height="540.44" rx="18.7131" transform="rotate(90 540.44 126.426)" fill="#D9D9D9"/>
<rect x="540.44" y="252.853" width="37.4262" height="540.44" rx="18.7131" transform="rotate(90 540.44 252.853)" fill="#D9D9D9"/>
<rect x="540.44" y="379.279" width="37.4262" height="540.44" rx="18.7131" transform="rotate(90 540.44 379.279)" fill="#D9D9D9"/>
<rect x="540.44" y="505.705" width="37.4262" height="540.44" rx="18.7131" transform="rotate(90 540.44 505.705)" fill="#D9D9D9"/>
<rect x="540.44" y="632.131" width="37.4262" height="540.44" rx="18.7131" transform="rotate(90 540.44 632.131)" fill="#D9D9D9"/>
<rect x="540.44" y="758.558" width="37.4262" height="540.44" rx="18.7131" transform="rotate(90 540.44 758.558)" fill="#D9D9D9"/>
<rect x="540.44" y="884.984" width="37.4262" height="540.44" rx="18.7131" transform="rotate(90 540.44 884.984)" fill="#D9D9D9"/>
<rect x="540.44" y="1011.41" width="37.4262" height="540.44" rx="18.7131" transform="rotate(90 540.44 1011.41)" fill="#D9D9D9"/>
<rect x="540.44" y="1137.84" width="37.4262" height="540.44" rx="18.7131" transform="rotate(90 540.44 1137.84)" fill="#D9D9D9"/>
<rect x="540.44" y="1264.26" width="37.4262" height="540.44" rx="18.7131" transform="rotate(90 540.44 1264.26)" fill="#D9D9D9"/>
<rect x="540.44" y="1390.69" width="37.4262" height="540.44" rx="18.7131" transform="rotate(90 540.44 1390.69)" fill="#D9D9D9"/>
<rect x="540.44" y="1517.12" width="37.4262" height="540.44" rx="18.7131" transform="rotate(90 540.44 1517.12)" fill="#D9D9D9"/>
<rect x="540.44" y="1643.54" width="37.4262" height="540.44" rx="18.7131" transform="rotate(90 540.44 1643.54)" fill="#D9D9D9"/>
<rect x="178" y="1517" width="37" height="177" rx="18.5" transform="rotate(90 178 1517)" fill="#52C1FF"/>
<rect x="492" width="37.4262" height="492" rx="18.7131" transform="rotate(90 492 0)" fill="#52C1FF"/>
<rect x="413" y="379.201" width="37.4262" height="413" rx="18.7131" transform="rotate(90 413 379.201)" fill="#52C1FF"/>
<rect x="324" y="884" width="38" height="324" rx="19" transform="rotate(90 324 884)" fill="#52C1FF"/>
<rect x="324" y="1011" width="37" height="323" rx="18.5" transform="rotate(90 324 1011)" fill="#52C1FF"/>
<rect x="302" y="1138" width="37" height="301" rx="18.5" transform="rotate(90 302 1138)" fill="#52C1FF"/>
<rect x="302" y="1265" width="37" height="301" rx="18.5" transform="rotate(90 302 1265)" fill="#52C1FF"/>
<rect x="302" y="1391" width="37" height="301" rx="18.5" transform="rotate(90 302 1391)" fill="#52C1FF"/>
<rect x="332" y="758.403" width="37.4262" height="331" rx="18.7131" transform="rotate(90 332 758.403)" fill="#52C1FF"/>
<rect x="415" y="631.366" width="37.4262" height="414" rx="18.7131" transform="rotate(90 415 631.366)" fill="#52C1FF"/>
<rect x="415" y="505.284" width="37.4262" height="415" rx="18.7131" transform="rotate(90 415 505.284)" fill="#52C1FF"/>
<rect x="470" y="126.067" width="37.4262" height="470" rx="18.7131" transform="rotate(90 470 126.067)" fill="#52C1FF"/>
<rect x="470" y="252.165" width="37.4262" height="470" rx="18.7131" transform="rotate(90 470 252.165)" fill="#52C1FF"/>
<rect x="177" y="1644" width="37" height="177" rx="18.5" transform="rotate(90 177 1644)" fill="#52C1FF"/>
</svg>
