<svg width="184" height="30" viewBox="0 0 184 30" fill="none" xmlns="http://www.w3.org/2000/svg">
<rect x="1" y="1" width="182" height="28" rx="11" fill="#D6F5FF"/>
<rect x="1" y="1" width="182" height="28" rx="11" stroke="#0093ED" stroke-width="2"/>
<path d="M24.0873 9.63282L20.3793 22.1428H18.0573L15.4293 12.6748L12.6393 22.1428L10.3353 22.1608L6.78927 9.63282H8.96727L11.5593 19.8208L14.3673 9.63282H16.6713L19.2813 19.7668L21.8913 9.63282H24.0873ZM25.0957 17.1388C25.0957 16.1428 25.2997 15.2608 25.7077 14.4928C26.1277 13.7248 26.6917 13.1308 27.3997 12.7108C28.1197 12.2788 28.9117 12.0628 29.7757 12.0628C30.5557 12.0628 31.2337 12.2188 31.8097 12.5308C32.3977 12.8308 32.8657 13.2088 33.2137 13.6648V12.2248H35.2837V22.1428H33.2137V20.6668C32.8657 21.1348 32.3917 21.5248 31.7917 21.8368C31.1917 22.1488 30.5077 22.3048 29.7397 22.3048C28.8877 22.3048 28.1077 22.0888 27.3997 21.6568C26.6917 21.2128 26.1277 20.6008 25.7077 19.8208C25.2997 19.0288 25.0957 18.1348 25.0957 17.1388ZM33.2137 17.1748C33.2137 16.4908 33.0697 15.8968 32.7817 15.3928C32.5057 14.8888 32.1397 14.5048 31.6837 14.2408C31.2277 13.9768 30.7357 13.8448 30.2077 13.8448C29.6797 13.8448 29.1877 13.9768 28.7317 14.2408C28.2757 14.4928 27.9037 14.8708 27.6157 15.3748C27.3397 15.8668 27.2017 16.4548 27.2017 17.1388C27.2017 17.8228 27.3397 18.4228 27.6157 18.9388C27.9037 19.4548 28.2757 19.8508 28.7317 20.1268C29.1997 20.3908 29.6917 20.5228 30.2077 20.5228C30.7357 20.5228 31.2277 20.3908 31.6837 20.1268C32.1397 19.8628 32.5057 19.4788 32.7817 18.9748C33.0697 18.4588 33.2137 17.8588 33.2137 17.1748ZM40.3729 13.8988V19.3888C40.3729 19.7608 40.4569 20.0308 40.6249 20.1988C40.8049 20.3548 41.1049 20.4328 41.5249 20.4328H42.7849V22.1428H41.1649C40.2409 22.1428 39.5329 21.9268 39.0409 21.4948C38.5489 21.0628 38.3029 20.3608 38.3029 19.3888V13.8988H37.1329V12.2248H38.3029V9.75882H40.3729V12.2248H42.7849V13.8988H40.3729ZM43.9922 17.1748C43.9922 16.1548 44.1962 15.2608 44.6042 14.4928C45.0242 13.7128 45.6002 13.1128 46.3322 12.6928C47.0642 12.2728 47.9042 12.0628 48.8522 12.0628C50.0522 12.0628 51.0422 12.3508 51.8222 12.9268C52.6142 13.4908 53.1482 14.3008 53.4242 15.3568H51.2102C51.0302 14.8648 50.7422 14.4808 50.3462 14.2048C49.9502 13.9288 49.4522 13.7908 48.8522 13.7908C48.0122 13.7908 47.3402 14.0908 46.8362 14.6908C46.3442 15.2788 46.0982 16.1068 46.0982 17.1748C46.0982 18.2428 46.3442 19.0768 46.8362 19.6768C47.3402 20.2768 48.0122 20.5768 48.8522 20.5768C50.0402 20.5768 50.8262 20.0548 51.2102 19.0108H53.4242C53.1362 20.0188 52.5962 20.8228 51.8042 21.4228C51.0122 22.0108 50.0282 22.3048 48.8522 22.3048C47.9042 22.3048 47.0642 22.0948 46.3322 21.6748C45.6002 21.2428 45.0242 20.6428 44.6042 19.8748C44.1962 19.0948 43.9922 18.1948 43.9922 17.1748ZM60.5991 12.0628C61.3551 12.0628 62.0271 12.2248 62.6151 12.5488C63.2151 12.8728 63.6831 13.3528 64.0191 13.9888C64.3671 14.6248 64.5411 15.3928 64.5411 16.2928V22.1428H62.5071V16.5988C62.5071 15.7108 62.2851 15.0328 61.8411 14.5648C61.3971 14.0848 60.7911 13.8448 60.0231 13.8448C59.2551 13.8448 58.6431 14.0848 58.1871 14.5648C57.7431 15.0328 57.5211 15.7108 57.5211 16.5988V22.1428H55.4691V8.82282H57.5211V13.3768C57.8691 12.9568 58.3071 12.6328 58.8351 12.4048C59.3751 12.1768 59.9631 12.0628 60.5991 12.0628ZM76.1364 22.3048C75.2004 22.3048 74.3544 22.0948 73.5984 21.6748C72.8424 21.2428 72.2484 20.6428 71.8164 19.8748C71.3844 19.0948 71.1684 18.1948 71.1684 17.1748C71.1684 16.1668 71.3904 15.2728 71.8344 14.4928C72.2784 13.7128 72.8844 13.1128 73.6524 12.6928C74.4204 12.2728 75.2784 12.0628 76.2264 12.0628C77.1744 12.0628 78.0324 12.2728 78.8004 12.6928C79.5684 13.1128 80.1744 13.7128 80.6184 14.4928C81.0624 15.2728 81.2844 16.1668 81.2844 17.1748C81.2844 18.1828 81.0564 19.0768 80.6004 19.8568C80.1444 20.6368 79.5204 21.2428 78.7284 21.6748C77.9484 22.0948 77.0844 22.3048 76.1364 22.3048ZM76.1364 20.5228C76.6644 20.5228 77.1564 20.3968 77.6124 20.1448C78.0804 19.8928 78.4584 19.5148 78.7464 19.0108C79.0344 18.5068 79.1784 17.8948 79.1784 17.1748C79.1784 16.4548 79.0404 15.8488 78.7644 15.3568C78.4884 14.8528 78.1224 14.4748 77.6664 14.2228C77.2104 13.9708 76.7184 13.8448 76.1904 13.8448C75.6624 13.8448 75.1704 13.9708 74.7144 14.2228C74.2704 14.4748 73.9164 14.8528 73.6524 15.3568C73.3884 15.8488 73.2564 16.4548 73.2564 17.1748C73.2564 18.2428 73.5264 19.0708 74.0664 19.6588C74.6184 20.2348 75.3084 20.5228 76.1364 20.5228ZM88.3169 12.0628C89.0969 12.0628 89.7929 12.2248 90.4049 12.5488C91.0289 12.8728 91.5149 13.3528 91.8629 13.9888C92.2109 14.6248 92.3849 15.3928 92.3849 16.2928V22.1428H90.3509V16.5988C90.3509 15.7108 90.1289 15.0328 89.6849 14.5648C89.2409 14.0848 88.6349 13.8448 87.8669 13.8448C87.0989 13.8448 86.4869 14.0848 86.0309 14.5648C85.5869 15.0328 85.3649 15.7108 85.3649 16.5988V22.1428H83.3129V12.2248H85.3649V13.3588C85.7009 12.9508 86.1269 12.6328 86.6429 12.4048C87.1709 12.1768 87.7289 12.0628 88.3169 12.0628ZM108.948 9.63282L104.808 17.6068V22.1428H102.756V17.6068L98.5981 9.63282H100.884L103.782 15.7708L106.68 9.63282H108.948ZM114.879 22.3048C113.943 22.3048 113.097 22.0948 112.341 21.6748C111.585 21.2428 110.991 20.6428 110.559 19.8748C110.127 19.0948 109.911 18.1948 109.911 17.1748C109.911 16.1668 110.133 15.2728 110.577 14.4928C111.021 13.7128 111.627 13.1128 112.395 12.6928C113.163 12.2728 114.021 12.0628 114.969 12.0628C115.917 12.0628 116.775 12.2728 117.543 12.6928C118.311 13.1128 118.917 13.7128 119.361 14.4928C119.805 15.2728 120.027 16.1668 120.027 17.1748C120.027 18.1828 119.799 19.0768 119.343 19.8568C118.887 20.6368 118.263 21.2428 117.471 21.6748C116.691 22.0948 115.827 22.3048 114.879 22.3048ZM114.879 20.5228C115.407 20.5228 115.899 20.3968 116.355 20.1448C116.823 19.8928 117.201 19.5148 117.489 19.0108C117.777 18.5068 117.921 17.8948 117.921 17.1748C117.921 16.4548 117.783 15.8488 117.507 15.3568C117.231 14.8528 116.865 14.4748 116.409 14.2228C115.953 13.9708 115.461 13.8448 114.933 13.8448C114.405 13.8448 113.913 13.9708 113.457 14.2228C113.013 14.4748 112.659 14.8528 112.395 15.3568C112.131 15.8488 111.999 16.4548 111.999 17.1748C111.999 18.2428 112.269 19.0708 112.809 19.6588C113.361 20.2348 114.051 20.5228 114.879 20.5228ZM131.037 12.2248V22.1428H128.985V20.9728C128.661 21.3808 128.235 21.7048 127.707 21.9448C127.191 22.1728 126.639 22.2868 126.051 22.2868C125.271 22.2868 124.569 22.1248 123.945 21.8008C123.333 21.4768 122.847 20.9968 122.487 20.3608C122.139 19.7248 121.965 18.9568 121.965 18.0568V12.2248H123.999V17.7508C123.999 18.6388 124.221 19.3228 124.665 19.8028C125.109 20.2708 125.715 20.5048 126.483 20.5048C127.251 20.5048 127.857 20.2708 128.301 19.8028C128.757 19.3228 128.985 18.6388 128.985 17.7508V12.2248H131.037ZM141.827 9.63282V11.3068H138.497V22.1428H136.445V11.3068H133.097V9.63282H141.827ZM152.887 12.2248V22.1428H150.835V20.9728C150.511 21.3808 150.085 21.7048 149.557 21.9448C149.041 22.1728 148.489 22.2868 147.901 22.2868C147.121 22.2868 146.419 22.1248 145.795 21.8008C145.183 21.4768 144.697 20.9968 144.337 20.3608C143.989 19.7248 143.815 18.9568 143.815 18.0568V12.2248H145.849V17.7508C145.849 18.6388 146.071 19.3228 146.515 19.8028C146.959 20.2708 147.565 20.5048 148.333 20.5048C149.101 20.5048 149.707 20.2708 150.151 19.8028C150.607 19.3228 150.835 18.6388 150.835 17.7508V12.2248H152.887ZM157.646 13.7008C157.994 13.2208 158.468 12.8308 159.068 12.5308C159.68 12.2188 160.358 12.0628 161.102 12.0628C161.978 12.0628 162.77 12.2728 163.478 12.6928C164.186 13.1128 164.744 13.7128 165.152 14.4928C165.56 15.2608 165.764 16.1428 165.764 17.1388C165.764 18.1348 165.56 19.0288 165.152 19.8208C164.744 20.6008 164.18 21.2128 163.46 21.6568C162.752 22.0888 161.966 22.3048 161.102 22.3048C160.334 22.3048 159.65 22.1548 159.05 21.8548C158.462 21.5548 157.994 21.1708 157.646 20.7028V22.1428H155.594V8.82282H157.646V13.7008ZM163.676 17.1388C163.676 16.4548 163.532 15.8668 163.244 15.3748C162.968 14.8708 162.596 14.4928 162.128 14.2408C161.672 13.9768 161.18 13.8448 160.652 13.8448C160.136 13.8448 159.644 13.9768 159.176 14.2408C158.72 14.5048 158.348 14.8888 158.06 15.3928C157.784 15.8968 157.646 16.4908 157.646 17.1748C157.646 17.8588 157.784 18.4588 158.06 18.9748C158.348 19.4788 158.72 19.8628 159.176 20.1268C159.644 20.3908 160.136 20.5228 160.652 20.5228C161.18 20.5228 161.672 20.3908 162.128 20.1268C162.596 19.8508 162.968 19.4548 163.244 18.9388C163.532 18.4228 163.676 17.8228 163.676 17.1388ZM176.883 16.9408C176.883 17.3128 176.859 17.6488 176.811 17.9488H169.233C169.293 18.7408 169.587 19.3768 170.115 19.8568C170.643 20.3368 171.291 20.5768 172.059 20.5768C173.163 20.5768 173.943 20.1148 174.399 19.1908H176.613C176.313 20.1028 175.767 20.8528 174.975 21.4408C174.195 22.0168 173.223 22.3048 172.059 22.3048C171.111 22.3048 170.259 22.0948 169.503 21.6748C168.759 21.2428 168.171 20.6428 167.739 19.8748C167.319 19.0948 167.109 18.1948 167.109 17.1748C167.109 16.1548 167.313 15.2608 167.721 14.4928C168.141 13.7128 168.723 13.1128 169.467 12.6928C170.223 12.2728 171.087 12.0628 172.059 12.0628C172.995 12.0628 173.829 12.2668 174.561 12.6748C175.293 13.0828 175.863 13.6588 176.271 14.4028C176.679 15.1348 176.883 15.9808 176.883 16.9408ZM174.741 16.2928C174.729 15.5368 174.459 14.9308 173.931 14.4748C173.403 14.0188 172.749 13.7908 171.969 13.7908C171.261 13.7908 170.655 14.0188 170.151 14.4748C169.647 14.9188 169.347 15.5248 169.251 16.2928H174.741Z" fill="#00314D"/>
</svg>
